<svg width="60" height="60" viewBox="0 0 60 60" fill="none" xmlns="http://www.w3.org/2000/svg">
<path d="M41.8554 27.5216H38.5656C37.9544 27.5216 37.4131 27.8754 37.2265 28.3969L34.1609 36.9646C33.87 37.7776 34.547 38.609 35.5 38.609H37.1791C37.7158 38.609 38.1429 39.0119 38.1153 39.4921L37.5955 48.5367C37.5826 48.7624 37.9222 48.8446 38.0379 48.6438L45.2504 36.1245C45.7335 35.286 45.0541 34.2868 44.0008 34.2868H42.5969C41.9575 34.2868 41.5057 33.726 41.7071 33.1824L43.1901 29.1782C43.4921 28.3628 42.8144 27.5216 41.8554 27.5216Z" fill="#FFD400"/>
<path d="M46.022 37.8193L46.9878 36.143C47.8415 34.6611 46.6408 32.8953 44.7794 32.8953H43.4499L44.8712 29.0578C45.405 27.6166 44.2073 26.1301 42.5125 26.1301H38.2196C37.1393 26.1301 36.1828 26.7553 35.853 27.6769L32.4833 37.0944C32.3963 37.3375 32.3583 37.5816 32.3633 37.8193L15.5547 37.8193C9.03516 37.8193 3.75 33.0843 3.75 27.2433C3.75 21.4023 9.03516 16.6673 15.5547 16.6673C16.9684 16.6673 18.324 16.8899 19.5803 17.2982C22.0589 11.8666 28.0158 8.03955 34.9704 8.03955C44.1493 8.03955 51.5902 14.706 51.5902 22.9294C51.5902 23.2917 51.5758 23.6509 51.5474 24.0067C54.3231 25.1518 56.25 27.6658 56.25 30.5831C56.25 34.5795 52.6338 37.8193 48.1731 37.8193H46.022Z" fill="white"/>
<path d="M32.0783 49.1799L30.4662 46.1687L28.8539 49.1803C28.6939 49.4313 28.6023 49.723 28.6023 50.0342C28.6023 50.9735 29.4368 51.735 30.4662 51.735C31.4956 51.735 32.3301 50.9735 32.3301 50.0342C32.3301 49.7228 32.2384 49.431 32.0783 49.1799Z" fill="#64D2FF"/>
<path d="M26.4869 43.6141L24.8745 40.6024L23.2624 43.6137C23.1023 43.8647 23.0106 44.1565 23.0106 44.4679C23.0106 45.4072 23.8451 46.1687 24.8745 46.1687C25.9039 46.1687 26.7384 45.4072 26.7384 44.4679C26.7384 44.1567 26.6468 43.865 26.4869 43.6141Z" fill="#64D2FF"/>
<path d="M20.8951 49.1802L19.2828 46.1687L17.6706 49.18C17.5106 49.431 17.4189 49.7229 17.4189 50.0342C17.4189 50.9735 18.2534 51.735 19.2828 51.735C20.3122 51.735 21.1467 50.9735 21.1467 50.0342C21.1467 49.7229 21.0551 49.4312 20.8951 49.1802Z" fill="#64D2FF"/>
<path d="M15.3033 43.6138L13.691 40.6024L12.0788 43.6139C11.9188 43.8649 11.8271 44.1566 11.8271 44.4679C11.8271 45.4072 12.6616 46.1687 13.6911 46.1687C14.7205 46.1687 15.555 45.4072 15.555 44.4679C15.555 44.1566 15.4633 43.8648 15.3033 43.6138Z" fill="#64D2FF"/>
</svg>
